<svg xmlns:xlink="http://www.w3.org/1999/xlink" xmlns="http://www.w3.org/2000/svg" class="unf-icon" viewBox="0 0 24 24" width="24" height="24" fill="#525867" style="display: inline-block; vertical-align: middle;"><path fill-rule="evenodd" clip-rule="evenodd" d="M19.1 7H4.9a.9.9 0 01-.9-.9v-.2a.9.9 0 01.9-.9H19a.92.92 0 011 .9V6a.92.92 0 01-.9 1zM19.1 13H4.9a.9.9 0 01-.9-.9V12a.92.92 0 01.9-1H19a.9.9 0 01.9.9v.1a.81.81 0 01-.8 1zM19.1 19H4.9a.9.9 0 01-.9-.9V18a.92.92 0 01.9-1H19a.9.9 0 01.9.9v.1a.81.81 0 01-.8 1z" fill="#525867"></path></svg>