<svg xmlns="http://www.w3.org/2000/svg" width="220" height="122" viewBox="0 0 220 122">
  <g id="Group_2" data-name="Group 2" transform="translate(-370 41)">
    <g id="Path_3" data-name="Path 3" transform="translate(370 -41)" fill="#fff">
      <path d="M 218 120 L 55.05506134033203 120 L 39.43744277954102 111.3256149291992 L 38.45820617675781 110.78173828125 L 37.48288345336914 111.3325271606445 L 22.13454437255859 120 L 2 120 L 2 2 L 21.84442710876465 2 L 37.19811630249023 10.57467651367188 L 38.18179321289062 11.1240291595459 L 39.16138076782227 10.5673828125 L 54.23831558227539 2 L 218 2 L 218 120 Z" stroke="none"/>
      <path d="M 4 4 L 4 118 L 21.60881042480469 118 L 38.45008850097656 108.4894409179688 L 55.57316589355469 118 L 216 118 L 216 4 L 54.76686096191406 4 L 38.1903076171875 13.41956329345703 L 21.32380676269531 4 L 4 4 M 0 0 L 22.36506652832031 0 L 38.17327880859375 8.828529357910156 L 53.70977783203125 0 L 220 0 L 220 122 L 54.53691101074219 122 L 38.46630859375 113.0740280151367 L 22.66021728515625 122 L 0 122 L 0 0 Z" stroke="none" fill="#000"/>
    </g>
    <circle id="Ellipse_1" data-name="Ellipse 1" cx="7.5" cy="7.5" r="7.5" transform="translate(401 -21)"/>
    <circle id="Ellipse_2" data-name="Ellipse 2" cx="7.5" cy="7.5" r="7.5" transform="translate(401 13)"/>
    <circle id="Ellipse_3" data-name="Ellipse 3" cx="7.5" cy="7.5" r="7.5" transform="translate(401 47)"/>
  </g>
</svg>
