<svg xmlns="http://www.w3.org/2000/svg" width="174" height="194.859" viewBox="0 0 174 194.859">
  <g id="Group_1" data-name="Group 1" transform="translate(-255 -122.141)">
    <rect id="Rectangle_1" data-name="Rectangle 1" width="155" height="99" transform="translate(264 218)"/>
    <rect id="Rectangle_2" data-name="Rectangle 2" width="174" height="43" transform="translate(255 165)"/>
    <rect id="Rectangle_3" data-name="Rectangle 3" width="124.863" height="43" transform="translate(363.5 174) rotate(90)" fill="#fff"/>
    <path id="Path_1" data-name="Path 1" d="M347.812,47.205s37.756.531,45.464-5.112,7.475-8.364,8.3-13.081,2.713-14.752-3.066-19.4-15.338-5.087-27.036,13.076S347.812,47.205,347.812,47.205Z" transform="translate(-5.812 117.781)" fill="none" stroke="#000" stroke-width="5"/>
    <path id="Path_2" data-name="Path 2" d="M402.54,47.205s-37.756.531-45.464-5.112-7.475-8.364-8.3-13.081-2.713-14.752,3.066-19.4,15.338-5.087,27.036,13.076S402.54,47.205,402.54,47.205Z" transform="translate(-61.04 117.781)" fill="none" stroke="#000" stroke-width="5"/>
  </g>
</svg>
